<svg width="583" height="579" viewBox="0 0 583 579" fill="none" xmlns="http://www.w3.org/2000/svg">
<path d="M291.007 0.00303949C214.294 -0.348134 140.572 29.7435 86.0173 83.6766C31.4622 137.61 0.528364 210.98 0 287.692C0 364.872 30.659 438.891 85.2334 493.465C139.808 548.039 213.827 578.699 291.007 578.699C368.186 578.699 442.204 548.039 496.779 493.465C551.353 438.891 582.013 364.872 582.013 287.692C581.485 210.98 550.55 137.61 495.995 83.6766C441.44 29.7435 367.72 -0.348134 291.007 0.00303949ZM291.007 439.637C261.026 439.296 231.816 430.094 207.053 413.19C182.291 396.285 163.082 372.433 151.845 344.636C140.609 316.839 137.845 286.339 143.904 256.975C149.962 227.611 164.573 200.695 185.895 179.616C207.216 158.537 234.296 144.236 263.727 138.513C293.158 132.79 323.625 135.901 351.292 147.455C378.959 159.009 402.59 178.489 419.21 203.443C435.831 228.397 444.699 257.71 444.697 287.692C444.583 307.761 440.516 327.61 432.73 346.107C424.945 364.604 413.592 381.386 399.321 395.495C385.049 409.605 368.138 420.765 349.554 428.339C330.969 435.913 311.075 439.752 291.007 439.637Z" fill="url(#paint0_linear_4298_1665)"/>
<defs>
<linearGradient id="paint0_linear_4298_1665" x1="-15.4381" y1="20.5652" x2="558.726" y2="435.883" gradientUnits="userSpaceOnUse">
<stop stop-color="#00A5F0"/>
<stop offset="1" stop-color="#00D7D7" stop-opacity="0"/>
</linearGradient>
</defs>
</svg>
