<svg width="33" height="28" viewBox="0 0 33 28" fill="none" xmlns="http://www.w3.org/2000/svg">
<path d="M16.4998 0.117816C12.1656 0.100265 8.00091 1.73029 4.91892 4.65053C1.83693 7.57076 0.0890902 11.5429 0.0586095 15.6961C0.0556118 17.7443 0.47944 19.7725 1.30524 21.6616C2.13103 23.5508 3.34218 25.263 4.86763 26.6977C5.51386 27.3062 6.38361 27.6471 7.28959 27.6471C8.19556 27.6471 9.06531 27.3062 9.71154 26.6977C10.0295 26.3978 10.2821 26.0403 10.4544 25.646C10.6268 25.2517 10.7156 24.8285 10.7156 24.401C10.7156 23.9735 10.6268 23.5503 10.4544 23.156C10.2821 22.7617 10.0295 22.4042 9.71154 22.1043C8.82225 21.2663 8.11596 20.267 7.63384 19.1647C7.15172 18.0624 6.90342 16.8792 6.90342 15.684C6.90342 14.4888 7.15172 13.3056 7.63384 12.2033C8.11596 11.101 8.82225 10.1017 9.71154 9.2637C11.5191 7.55974 13.9531 6.60479 16.4886 6.60479C19.0242 6.60479 21.4582 7.55974 23.2657 9.2637C24.155 10.1017 24.8613 11.101 25.3434 12.2033C25.8256 13.3056 26.0739 14.4888 26.0739 15.684C26.0739 16.8792 25.8256 18.0624 25.3434 19.1647C24.8613 20.267 24.155 21.2663 23.2657 22.1043C22.9478 22.4042 22.6952 22.7617 22.5228 23.156C22.3504 23.5503 22.2617 23.9735 22.2617 24.401C22.2617 24.8285 22.3504 25.2517 22.5228 25.646C22.6952 26.0403 22.9478 26.3978 23.2657 26.6977C23.912 27.3062 24.7817 27.6471 25.6877 27.6471C26.5937 27.6471 27.4634 27.3062 28.1096 26.6977C29.6391 25.2648 30.8544 23.5534 31.684 21.6641C32.5137 19.7749 32.941 17.7458 32.9409 15.6961C32.9105 11.5429 31.1626 7.57076 28.0806 4.65053C24.9986 1.73029 20.834 0.100265 16.4998 0.117816Z" fill="white"/>
</svg>
